<?xml version="1.0" encoding="utf-8"?>
<!-- Generator: Adobe Illustrator 24.3.0, SVG Export Plug-In . SVG Version: 6.00 Build 0)  -->
<svg version="1.1" id="图层_1" xmlns="http://www.w3.org/2000/svg" xmlns:xlink="http://www.w3.org/1999/xlink" x="0px" y="0px"
	 viewBox="0 0 650 650" style="enable-background:new 0 0 650 650;" xml:space="preserve">
<style type="text/css">
	.st0{fill:#F2EE71;}
	.st1{clip-path:url(#SVGID_2_);fill:#231815;}
	.st2{clip-path:url(#SVGID_4_);fill:#231815;}
	.st3{clip-path:url(#SVGID_6_);}
	.st4{fill:none;}
</style>
<circle class="st0" cx="325" cy="325" r="300"/>
<g>
	<g>
		<defs>
			<circle id="SVGID_1_" cx="325" cy="325" r="300"/>
		</defs>
		<clipPath id="SVGID_2_">
			<use xlink:href="#SVGID_1_"  style="overflow:visible;"/>
		</clipPath>
		<polyline class="st1" points="8,312 8,110 76,527 		"/>
	</g>
	<g>
		<defs>
			<circle id="SVGID_3_" cx="325" cy="325" r="300"/>
		</defs>
		<clipPath id="SVGID_4_">
			<use xlink:href="#SVGID_3_"  style="overflow:visible;"/>
		</clipPath>
		<rect x="11" y="381" class="st2" width="183" height="244"/>
	</g>
	<g>
		<defs>
			<circle id="SVGID_5_" cx="325" cy="325" r="300"/>
		</defs>
		<clipPath id="SVGID_6_">
			<use xlink:href="#SVGID_5_"  style="overflow:visible;"/>
		</clipPath>
		<g class="st3">
			<path class="st4" d="M262,163.9c0-1.4,3.2-8.6,7.2-16c6.3-11.8,7.1-14,6.7-17.5c-0.7-4.8-3-7.4-7.7-8.7
				c-4.3-1.1-19.5-1.2-27.4-0.1l-5.5,0.8l-7.1-6.1c-3.9-3.4-9.5-8-12.6-10.4c-4.6-3.4-6.3-4.2-9.9-4.2s-4.7,0.5-6.8,3.2
				c-3.2,4.2-4.5,8-6.3,19.6c-1,5.8-2.3,10.3-3.7,12.2c-1.1,1.6-7.1,5.7-13.3,9.2c-19.9,11.2-22.1,14.9-13.3,23
				c2.6,2.5,8.6,6.4,13.2,8.8c11.7,6,12.7,7.4,14.8,21.1c3.5,22.6,5.2,25.8,12.9,25.8c4,0,4.9-0.6,14-9.3
				c5.4-5.2,11.1-10.3,12.7-11.5c3.8-2.8,9.3-2.8,20.2-0.1c6.4,1.6,9.8,1.9,14.9,1.4c13.7-1.3,14.1-4.2,4.1-24.5
				C265.3,172.8,262,165.2,262,163.9z"/>
			<path class="st4" d="M558.8,297.9c-2.3,4.9-1,6.2,5.2,4.6c6.2-1.5,6-1.6,10.8,2.4c6.5,5.3,8.1,4.5,8.1-4c0-3.9,0.4-4.8,4.1-7.6
				c2.2-1.8,4.1-4,4.1-5c0-1.8-4.7-4.9-7.4-4.9c-2,0-4-2.5-5.8-7.3c-0.8-2.2-2-4.2-2.7-4.4c-0.6-0.2-2.5,1.4-4.4,3.5
				c-2.7,3.4-3.8,4-8.2,4.4c-2.8,0.3-5.4,0.8-5.7,1.2c-0.4,0.4,0.3,2.6,1.5,4.9C561,290.7,561.2,293.2,558.8,297.9z"/>
			<path class="st4" d="M400.4,100.7c-3.9-0.6-7.6-1.5-8.5-2c-0.8-0.4-3.5-4.4-6-8.8c-2.4-4.5-4.8-8.1-5.2-8.1
				c-0.4,0-1.3-0.2-2.1-0.5c-2.7-1-6.8,2.9-9.5,9.3c-1.5,3.5-3.6,6.9-4.9,7.7c-1.2,0.7-5.7,2-9.9,3c-7.7,1.6-11,3.7-11,7.2
				c0,0.6,2.5,3.8,5.6,7.1c7.3,7.8,8,9.8,6.5,18.6c-0.6,3.9-0.9,8.4-0.7,10.1c0.3,2.6,0.7,3,3.9,3.3c2.3,0.2,6-0.8,10.4-2.8
				c3.8-1.6,7.8-3,9-3c1.1,0,5.8,1.6,10.1,3.5c8.9,3.8,12.8,4.4,13.8,1.9c0.3-0.9,0.1-5.9-0.6-11.1c-1.5-11.1-0.8-13.6,4.7-17.3
				c1.9-1.3,4.8-4.1,6.2-6.2c2.1-3.3,2.3-4.2,1.4-6.3C412.1,103.3,409.7,102.3,400.4,100.7z"/>
			<path class="st4" d="M124.5,299.7c0.8-1.9,1.5-5,1.5-6.9c0-4.7-2.1-5.6-10.1-3.9c-8.7,1.9-8,2-14.8-2.3
				c-7.7-4.9-8.9-5.3-11.1-3.7c-1.4,1-1.8,2.7-1.9,8.3c-0.1,7.9-0.8,9.1-7.3,12.9c-8.5,4.9-7.8,8.4,2.7,13c6.5,2.8,6.7,3.1,8.2,10.2
				c2.5,12.3,4.7,12.9,14.7,4l6.8-6.1l7.4,0.6c6,0.5,7.6,0.4,8.9-0.9c2.4-2.5,2-4.7-2.4-10.8C122.6,308.1,122.1,305.3,124.5,299.7z"
				/>
			<path class="st4" d="M80.8,198.8c3.2,1.6,4.8,3,5.2,4.8c2.7,11.8,3.3,12.2,9.3,5.4c3.9-4.5,4.4-4.7,10.5-5.3
				c7.7-0.7,8.6-2.3,4.4-7.8c-2.6-3.4-2.8-3.9-1.7-8.7c1.5-7.3,1-8-5.6-7.2c-5.3,0.6-5.7,0.5-9.4-2.9c-5.9-5.2-6.5-4.9-7.6,3.4
				c-0.6,4.4-1.2,5.6-4.4,7.9C74.5,193.4,74.4,195.8,80.8,198.8z"/>
			<path d="M625,325.2c0-0.2,0-0.4,0-0.6c0-20.3-2.1-40.1-5.9-59.3c-1.7-8.2-3.8-16.5-6-24.4c-4-13.7-8.9-26.9-14.7-39.7l-0.1,7.1
				c-0.1,6.2-0.4,7.4-2.3,8.7c-3.7,2.5-5.9,2-18.4-4.4c-13.8-7.1-16.3-7.4-27.4-3c-10.2,4-17.9,4.2-20.9,0.4
				c-2.6-3.3-2.6-6.7-0.1-16.8c3.3-13.1,3.2-13.9-5.7-24.1c-6.7-7.8-7.6-9.2-7.3-12.3c0.4-5.2,3.7-7,16.3-9
				c12.7-2.1,15-3.8,18.8-13.1l1.9-4.7c-17.1-20-36.9-37.8-58.7-52.8c-1.5,0.6-2.1,2.8-1.7,6.4c0.8,7.4-2,10-7.2,6.4
				c-5.8-4-7.3-4.3-12.3-2.8c-5.7,1.7-9.8,1.8-10.9,0.3c-0.3-0.6,0.2-3.5,1.1-6.4l1.8-5.2l-3.1-5.4c-4-6.9-3.2-8.9,3.3-8.9
				c1.3,0,2.4-0.1,3.2-0.3C438,44.8,404,33.2,367.9,28.1c0,0.7,0,1.4,0,2.2c0,2.9-0.2,5.8-0.7,6.5c-1.2,1.9-7.8,4.9-12.8,5.7
				c-7.6,1.3-27.7,7.4-28.6,8.7c-0.4,0.7-1.4,3.5-2.2,6.3c-2.8,9.2-10.7,26.4-13.9,30.4c-2.6,3.2-4,4-6.6,4
				c-4.6,0-8.5-4.1-26.5-27.9c-9-11.9-7-11-27.7-13.5c-16.1-1.9-19.2-2.8-24.9-7.1l-0.8-0.6C108,84.3,25.7,194.2,25,323.4
				c0.2,28.1,4.4,56.4,12.6,84.1c21.8,73.3,71.1,136.5,136.9,175.6c5.2,3.1,11.7,6.7,14.4,8.1l5,2.5l1.6-2.9
				c0.8-1.6,2.2-5.1,3.2-7.7c0.9-2.6,6.3-14.4,12-26.2c5.8-11.9,14.2-30.3,18.9-41c13.9-32.2,33.3-74.9,35.8-78.9
				c2.1-3.5,0.9-11.5-4.6-29.8c-5.2-17.1-9.3-35.5-14-61.9c-1.7-9.6-3.3-18.2-3.5-19c-0.3-0.8-1.1-6.1-1.9-11.8
				c-1.4-9.7-1.7-10.6-6.4-17c-7.4-10.1-9.3-13.5-9.6-17.3c-0.2-2.8,0-3.4,1.5-3.2c0.9,0.2,2.5,0.4,3.5,0.5c1.9,0.3,2-0.8,0.7-10.5
				c-0.9-6.9-0.1-7.2,6.2-2.2c6.1,4.9,7.5,4.1,7.5-4.6c0-6.1,0.2-6.9,1.9-6.9c1.8,0,4.8,2.8,8.4,8c1.5,2.4,1.7,2.4,3.4,0.8
				c1-1,2.7-3.7,4-6c2.2-4.7,5.8-6.2,7.1-3.1c0.4,1,1,6,1.2,11c0.3,5.2,1,9.3,1.6,9.3c0.5,0,2.5-0.9,4.5-2.1c2.8-1.7,3.7-1.9,5-0.8
				c2,1.7,1.4,4.8-3.1,15.2c-4,9-4.5,14.3-2.4,28.3c2.5,18.3,16.3,65.3,22.5,76.5c5.3,9.7,9.5,10.7,6,1.4
				c-2.8-7.4-4.7-23.3-3.9-32.8c0.4-4.4,1.8-11.1,3.2-14.9c5.7-15.7,21.6-37.7,42.1-58.4c8.1-8.3,15.3-15.9,15.9-17
				c0.5-1.1,1.9-5.9,3.2-10.7c4.5-18.6,16.8-47.8,21.6-51.1c3.7-2.5,5.5-1.9,9.6,3.1c9.5,11.4,34.1,26.7,39.3,24.5
				c1.2-0.5,5.5-3.7,9.6-7.1c4.2-3.4,8.2-6.1,9.1-5.9c0.9,0.2,4,3.9,6.9,8.3c9.9,15.2,14.5,20.2,30.7,33.9
				c12.5,10.6,20.7,20.1,32.1,36.9c14,20.8,13.8,20.3,14.5,35.7c0.3,9.3,0.9,13.9,2,15.5c2.4,3.6,5.3,18.9,5.3,28.1
				c0,21.6-4.4,39.9-12.1,49.8c-5.4,6.9-7.5,8.6-31.1,24.2c-15.7,10.5-18.9,12.1-35.5,18.6c-32.9,12.9-51.2,17-69.6,15.9
				c-6-0.3-11.7-0.9-12.6-1.3c-1.5-0.5-1.6,0.4-1.3,7.3c0.2,4.4,1.6,16.4,3.1,26.8s3.7,26.3,4.9,35.3c2.5,19.4,10.4,52.3,13.5,57.3
				C532.1,578.8,624.9,462.9,625,325.2z M556.8,280.8c0.3-0.4,2.9-0.9,5.7-1.2c4.4-0.4,5.5-1,8.2-4.4c1.8-2.1,3.8-3.7,4.4-3.5
				c0.7,0.2,1.9,2.2,2.7,4.4c1.8,4.8,3.8,7.3,5.8,7.3c2.7,0,7.4,3.1,7.4,4.9c0,1-1.8,3.2-4.1,5c-3.7,2.8-4.1,3.7-4.1,7.6
				c0,8.5-1.6,9.3-8.1,4c-4.8-4-4.6-3.9-10.8-2.4c-6.2,1.6-7.5,0.3-5.2-4.6c2.3-4.7,2.1-7.2-0.5-12.2
				C557.1,283.4,556.4,281.2,556.8,280.8z M81.4,188.4c3.1-2.3,3.8-3.5,4.4-7.9c1.1-8.3,1.7-8.6,7.6-3.4c3.8,3.4,4.2,3.5,9.4,2.9
				c6.6-0.8,7.1-0.1,5.6,7.2c-1,4.8-0.9,5.3,1.7,8.7c4.3,5.5,3.3,7.1-4.4,7.8c-6.1,0.6-6.6,0.8-10.5,5.3c-6,6.8-6.6,6.4-9.3-5.4
				c-0.4-1.8-1.9-3.2-5.2-4.8C74.4,195.8,74.5,193.4,81.4,188.4z M129.4,324.8c-1.3,1.3-2.9,1.4-8.9,0.9l-7.4-0.6l-6.8,6.1
				c-10,8.9-12.2,8.3-14.7-4c-1.5-7.1-1.7-7.4-8.2-10.2c-10.6-4.6-11.3-8.1-2.7-13c6.5-3.8,7.2-5,7.3-12.9c0.1-5.6,0.5-7.3,1.9-8.3
				c2.2-1.6,3.4-1.2,11.1,3.7c6.8,4.3,6.1,4.2,14.8,2.3c8-1.7,10.1-0.8,10.1,3.9c0,1.9-0.7,5-1.5,6.9c-2.3,5.6-1.8,8.4,2.5,14.4
				C131.5,320.1,131.9,322.3,129.4,324.8z M265.1,205.1c-5.1,0.5-8.5,0.2-14.9-1.4c-10.9-2.7-16.4-2.7-20.2,0.1
				c-1.6,1.2-7.3,6.3-12.7,11.5c-9.1,8.7-10,9.3-14,9.3c-7.7,0-9.3-3.3-12.9-25.8c-2.1-13.7-3.1-15.1-14.8-21.1
				c-4.6-2.4-10.6-6.3-13.2-8.8c-8.8-8.1-6.6-11.8,13.3-23c6.2-3.5,12.2-7.6,13.3-9.2c1.3-1.9,2.6-6.4,3.7-12.2
				c1.8-11.6,3-15.4,6.3-19.6c2.1-2.7,3.2-3.2,6.8-3.2s5.4,0.8,9.9,4.2c3,2.4,8.7,7,12.6,10.4l7.1,6.1l5.5-0.8
				c7.9-1.1,23.1-1,27.4,0.1c4.8,1.3,7,3.9,7.7,8.7c0.4,3.5-0.4,5.7-6.7,17.5c-4,7.4-7.2,14.6-7.2,16c0,1.3,3.2,8.9,7.1,16.8
				C279.2,200.9,278.8,203.8,265.1,205.1z M412.1,112.6c-1.4,2.1-4.3,4.9-6.2,6.2c-5.5,3.7-6.2,6.2-4.7,17.3
				c0.7,5.2,0.9,10.2,0.6,11.1c-1,2.5-4.9,1.9-13.8-1.9c-4.4-1.9-9-3.5-10.1-3.5c-1.2,0-5.3,1.4-9,3c-4.4,2-8,3-10.4,2.8
				c-3.1-0.3-3.5-0.7-3.9-3.3c-0.2-1.7,0.1-6.2,0.7-10.1c1.5-8.8,0.8-10.8-6.5-18.6c-3-3.3-5.6-6.5-5.6-7.1c0-3.5,3.2-5.6,11-7.2
				c4.3-1,8.7-2.3,9.9-3c1.2-0.8,3.3-4.2,4.9-7.7c2.7-6.4,6.8-10.3,9.5-9.3c0.8,0.3,1.7,0.5,2.1,0.5s2.7,3.6,5.2,8.1
				c2.4,4.4,5.2,8.4,6,8.8c0.9,0.5,4.7,1.4,8.5,2c9.2,1.6,11.7,2.6,13.1,5.6C414.4,108.4,414.2,109.3,412.1,112.6z"/>
			<path d="M366.1,588.2c-5-23.6-9.2-42.2-10.2-44.8c-1-2.5-2.1-1.9-3.8,2.1c-2.6,6.6-5.8,22.9-9.9,51.5c-2,14.1-3.7,25.8-3.9,27.7
				c11.7-0.5,23.2-1.7,34.5-3.5c0.7-1,0.3-2.6-0.5-5.5C371.4,612.7,368.6,600.3,366.1,588.2z"/>
		</g>
	</g>
</g>
</svg>
